<?xml version="1.0" encoding="UTF-8" standalone="no"?>
<svg
   height="16"
   viewBox="0 0 16 16"
   width="16"
   version="1.1"
   id="svg4"
   sodipodi:docname="icon_npc.svg"
   inkscape:version="1.1 (c68e22c387, 2021-05-23)"
   xmlns:inkscape="http://www.inkscape.org/namespaces/inkscape"
   xmlns:sodipodi="http://sodipodi.sourceforge.net/DTD/sodipodi-0.dtd"
   xmlns="http://www.w3.org/2000/svg"
   xmlns:svg="http://www.w3.org/2000/svg">
  <defs
     id="defs8" />
  <sodipodi:namedview
     id="namedview6"
     pagecolor="#ffffff"
     bordercolor="#666666"
     borderopacity="1.0"
     inkscape:pageshadow="2"
     inkscape:pageopacity="0.0"
     inkscape:pagecheckerboard="0"
     showgrid="false"
     inkscape:zoom="18.384776"
     inkscape:cx="-14.250922"
     inkscape:cy="19.010294"
     inkscape:window-width="1920"
     inkscape:window-height="1017"
     inkscape:window-x="-8"
     inkscape:window-y="-8"
     inkscape:window-maximized="1"
     inkscape:current-layer="svg4" />
  <path
     style="fill:#fc7e7e;fill-opacity:0.996078;stroke-width:0.113086"
     d="M 3.9204444,15.196209 C 2.6221396,14.787373 1.3995386,13.543123 0.99888363,12.222917 0.77434263,11.483023 0.78744263,9.6732684 1.0224236,8.9714774 1.4388626,7.727729 2.2652676,6.8194828 3.5119029,6.2354595 4.1205898,5.9503015 4.2816751,5.9262823 5.5854347,5.9262823 c 1.3445066,0 1.4495058,0.017032 2.1489584,0.3485099 0.942042,0.4464486 1.7491518,1.2535595 2.1956003,2.1956015 0.3314826,0.6994517 0.3485096,0.8044507 0.3485096,2.1489573 0,1.303759 -0.02402,1.464845 -0.3091768,2.073533 -0.5840233,1.246634 -1.4922695,2.07304 -2.7360178,2.489479 -0.6812346,0.228094 -2.6069325,0.236143 -3.3128611,0.01384 z m 3.006546,-1.628505 C 8.066034,12.986092 8.9147519,11.633563 8.8420841,10.51578 L 8.8083871,9.9973784 7.6775273,9.9346484 C 6.4001661,9.8637884 5.6157683,9.5799194 4.8573975,8.9140604 L 4.4223946,8.5321217 4.240585,8.8097339 C 3.8812901,9.3583564 3.4208646,9.8144034 2.8682476,10.169015 c -0.479485,0.307686 -0.562142,0.413226 -0.5612,0.716572 0.0015,0.460394 0.436776,1.390003 0.895773,1.912772 0.198659,0.226259 0.6760725,0.570739 1.0609203,0.76551 0.6215568,0.314569 0.7818357,0.348635 1.4347812,0.304955 0.4533641,-0.03033 0.9241498,-0.145726 1.2284728,-0.301117 z m -3.354489,-1.840111 c -0.1759408,-0.17594 -0.1759408,-1.135857 0,-1.311797 0.1759404,-0.17594 1.1358576,-0.17594 1.3117969,0 0.1759403,0.17594 0.1759403,1.135857 0,1.311797 -0.074632,0.07463 -0.3697909,0.135703 -0.6558981,0.135703 -0.2861072,0 -0.5812622,-0.06107 -0.6558988,-0.135703 z m 2.7140639,0 c -0.074632,-0.07463 -0.135703,-0.36979 -0.135703,-0.655898 0,-0.286108 0.061069,-0.581262 0.135703,-0.655899 0.1759404,-0.17594 1.1358569,-0.17594 1.3117973,0 0.074632,0.07463 0.135703,0.369791 0.135703,0.655899 0,0.286108 -0.061069,0.581262 -0.135703,0.655898 -0.1759404,0.175941 -1.1358569,0.175941 -1.3117973,0 z"
     id="path1197" />
  <path
     style="fill:#ffffff;stroke-width:0.121952"
     d="M 10.758137,15.225631 C 10.134029,14.237297 6.6574838,8.1620901 6.6574838,8.0598011 c 0,-0.08095 0.490087,-0.11514 1.371953,-0.09571 1.26301,0.02781 1.415094,0.0061 1.91532,-0.271801 0.2988502,-0.166121 0.7104422,-0.540005 0.9146302,-0.830841 0.325846,-0.464092 0.371271,-0.630679 0.371271,-1.361454 0,-0.730768 -0.04546,-0.897347 -0.371271,-1.361447 -0.204188,-0.290836 -0.61578,-0.665996 -0.9146302,-0.833675 -0.527092,-0.295749 -0.630748,-0.306706 -3.461608,-0.365854 l -2.918241,-0.06097 -0.646732,-1.097561 c -0.355715,-0.603662 -0.647689,-1.1387229 -0.648842,-1.1890299 -0.0015,-0.05028 1.63846,-0.09146 3.643598,-0.09146 3.309432,0 3.717181,0.02254 4.4207382,0.244463 1.395037,0.4400239 2.629752,1.6207249 3.155544,3.0174879 0.223237,0.593056 0.256559,0.889966 0.215573,1.92099 -0.04073,1.023574 -0.103251,1.333313 -0.389326,1.927759 -0.399039,0.829144 -1.394464,1.896279 -2.108788,2.2607041 l -0.502565,0.2563828 1.51328,2.635581 c 0.832307,1.44957 1.513279,2.658329 1.513279,2.686126 0,0.02781 -0.629832,0.05051 -1.399629,0.05051 -1.318826,0 -1.40963,-0.01589 -1.572901,-0.274392 z"
     id="path217"
     sodipodi:nodetypes="ssssssssscscsssssscssss" />
</svg>
