<?xml version="1.0" encoding="UTF-8" standalone="no"?>
<svg
   height="16"
   viewBox="0 0 16 16"
   width="16"
   version="1.1"
   id="svg4"
   sodipodi:docname="icon_env.svg"
   inkscape:version="1.1 (c68e22c387, 2021-05-23)"
   xmlns:inkscape="http://www.inkscape.org/namespaces/inkscape"
   xmlns:sodipodi="http://sodipodi.sourceforge.net/DTD/sodipodi-0.dtd"
   xmlns="http://www.w3.org/2000/svg"
   xmlns:svg="http://www.w3.org/2000/svg">
  <defs
     id="defs8" />
  <sodipodi:namedview
     id="namedview6"
     pagecolor="#ffffff"
     bordercolor="#666666"
     borderopacity="1.0"
     inkscape:pageshadow="2"
     inkscape:pageopacity="0.0"
     inkscape:pagecheckerboard="0"
     showgrid="false"
     inkscape:zoom="18.384776"
     inkscape:cx="3.8074981"
     inkscape:cy="4.8137655"
     inkscape:window-width="1920"
     inkscape:window-height="1017"
     inkscape:window-x="-8"
     inkscape:window-y="-8"
     inkscape:window-maximized="1"
     inkscape:current-layer="svg4" />
  <g
     stroke-linecap="round"
     stroke-linejoin="round"
     stroke-width="2"
     id="g6"
     transform="matrix(0.6737126,0,0,0.6737126,0.16858047,5.2525696)">
    <path
       d="M 8,1 A 7,7 0 0 0 1,8 7,7 0 0 0 8,15 7,7 0 0 0 15,8 7,7 0 0 0 8,1 Z M 6.2695,3.3125 C 5.43825,4.8497 5.001,6.4162 5,7.9941 4.35943,7.88159 3.6995,7.72252 3.0234,7.52144 a 5,5 0 0 1 3.2461,-4.209 z m 3.4629,0.00391 a 5,5 0 0 1 3.2383,4.1875 C 12.31883,7.67839 11.663,7.83258 10.998,7.95313 10.9896,6.39043 10.55506,4.83903 9.7324,3.31643 Z M 8,3.3242188 c 1.0126,1.593 1.5,3.1425 1.5,4.6758 0,0.054042 -0.00662,0.10803 -0.00781,0.16211 -0.96392,0.096801 -1.9566,0.1103 -2.9844,0.027344 -0.00163,-0.063192 -0.00781,-0.12632 -0.00781,-0.18945 0,-1.5333 0.48744,-3.0828 1.5,-4.6758 z m 4.8789,5.7578 A 5,5 0 0 1 9.7305,12.687519 c 0.57106,-1.0564 0.95277,-2.1268 1.1367,-3.2051002 0.68204,-0.10905 1.3556,-0.23789 2.0117,-0.40039 z m -9.7461,0.033203 c 0.68377,0.18153 1.3555,0.33345 2.0098,0.43164 0.18781,1.0551002 0.56647,2.1026002 1.125,3.1367002 A 5,5 0 0 1 3.1328,9.1151618 Z m 6.168,0.55469 C 9.07465,10.658572 8.64656,11.658312 8,12.675812 c -0.63811,-1.0042 -1.0645,-1.9908 -1.293,-2.9668002 0.89027,0.054126 1.7517,0.029377 2.5938,-0.039062 z"
       fill="#fc7f7f"
       fill-opacity="0.99608"
       id="path2" />
    <path
       d="M 8,1 V 3.3242 C 9.0126,4.9172 9.5,6.4667 9.5,8 9.5,8.054042 9.49338,8.10803 9.49219,8.16211 9.00279,8.211258 8.50506,8.239662 7.99999,8.244141 v 1.4922 c 0.43915,-0.0076 0.87287,-0.031628 1.3008,-0.066406 -0.22615,0.98866 -0.65424,1.9884 -1.3008,3.0059 v 2.3242 a 7,7 0 0 0 7.000001,-7 7,7 0 0 0 -7.000001,-7 z m 1.7324,2.3164 a 5,5 0 0 1 3.2383,4.1875 C 12.31883,7.67838 11.663,7.83257 10.998,7.95312 10.98955,6.39042 10.55506,4.83902 9.7324,3.31642 Z m 3.1465,5.7656 a 5,5 0 0 1 -3.1484,3.6055 c 0.57106,-1.0564 0.95277,-2.1268 1.1367,-3.2051 0.68204,-0.10905 1.3556,-0.23789 2.0117,-0.40039 z"
       fill="#8da5f3"
       id="path4" />
  </g>
  <path
     style="fill:#ffffff;stroke-width:0.121952"
     d="M 10.758137,15.225631 C 10.134029,14.237297 6.6574838,8.1620901 6.6574838,8.0598011 c 0,-0.08095 0.490087,-0.11514 1.371953,-0.09571 1.26301,0.02781 1.415094,0.0061 1.91532,-0.271801 0.2988502,-0.166121 0.7104422,-0.540005 0.9146302,-0.830841 0.325846,-0.464092 0.371271,-0.630679 0.371271,-1.361454 0,-0.730768 -0.04546,-0.897347 -0.371271,-1.361447 -0.204188,-0.290836 -0.61578,-0.665996 -0.9146302,-0.833675 -0.527092,-0.295749 -0.630748,-0.306706 -3.461608,-0.365854 l -2.918241,-0.06097 -0.646732,-1.097561 c -0.355715,-0.603662 -0.647689,-1.1387229 -0.648842,-1.1890299 -0.0015,-0.05028 1.63846,-0.09146 3.643598,-0.09146 3.309432,0 3.717181,0.02254 4.4207382,0.244463 1.395037,0.4400239 2.629752,1.6207249 3.155544,3.0174879 0.223237,0.593056 0.256559,0.889966 0.215573,1.92099 -0.04073,1.023574 -0.103251,1.333313 -0.389326,1.927759 -0.399039,0.829144 -1.394464,1.896279 -2.108788,2.2607041 l -0.502565,0.2563828 1.51328,2.635581 c 0.832307,1.44957 1.513279,2.658329 1.513279,2.686126 0,0.02781 -0.629832,0.05051 -1.399629,0.05051 -1.318826,0 -1.40963,-0.01589 -1.572901,-0.274392 z"
     id="path217"
     sodipodi:nodetypes="ssssssssscscsssssscssss" />
</svg>
